# Blender v2.79 (sub 0) OBJ File: 'skybox.blend'
# www.blender.org
mtllib skybox.mtl
o skybox_Cube.001
v -800.000000 -850.000000 800.000000
v -800.000000 750.000000 800.000000
v -800.000000 -850.000000 -800.000000
v -800.000000 750.000000 -800.000000
v 800.000000 -850.000000 800.000000
v 800.000000 750.000000 800.000000
v 800.000000 -850.000000 -800.000000
v 800.000000 750.000000 -800.000000
vt 0.998361 0.360071
vt 0.749180 0.360071
vt 0.749180 0.676272
vt 0.998361 0.676272
vt 0.500000 0.360071
vt 0.500000 0.676272
vt 0.250820 0.360071
vt 0.250820 0.676272
vt 0.001640 0.360071
vt 0.001640 0.676272
vt 0.500000 0.043871
vt 0.250820 0.043871
vt 0.250820 0.992472
vt 0.500000 0.992472
vn 1.0000 0.0000 0.0000
vn 0.0000 0.0000 1.0000
vn -1.0000 0.0000 0.0000
vn 0.0000 0.0000 -1.0000
vn 0.0000 1.0000 0.0000
vn 0.0000 -1.0000 0.0000
usemtl skyboxmat
s off
f 1/1/1 3/2/1 4/3/1 2/4/1
f 3/2/2 7/5/2 8/6/2 4/3/2
f 7/5/3 5/7/3 6/8/3 8/6/3
f 5/7/4 1/9/4 2/10/4 6/8/4
f 3/11/5 1/12/5 5/7/5 7/5/5
f 8/6/6 6/8/6 2/13/6 4/14/6
